<svg xmlns="http://www.w3.org/2000/svg" width="40" height="35" viewBox="0 0 40 35">
  <path id="thumbs-up-solid" d="M10,64.43V46.93A2.441,2.441,0,0,0,7.5,44.5h-5A2.486,2.486,0,0,0,0,46.93v17.43a2.441,2.441,0,0,0,2.5,2.43h5A2.267,2.267,0,0,0,10,64.43ZM40,47.008a3.749,3.749,0,0,0-3.75-3.748H24.8a19.07,19.07,0,0,0,2.7-7.5A3.779,3.779,0,0,0,23.633,32c-4.932,0-2.059,5.949-8.453,11.063l-1.273,1.016A3.765,3.765,0,0,0,12.508,47h0L12.5,59.5a3.749,3.749,0,0,0,1.5,3l2.667,2a12.465,12.465,0,0,0,7.5,2.5H28.75A3.726,3.726,0,0,0,32.4,62.427a3.71,3.71,0,0,0,2.04-5.5,3.726,3.726,0,0,0,2.064-6.2A3.739,3.739,0,0,0,40,47.008Z" transform="translate(0 -32)" fill="#fff"/>
</svg>
