<svg xmlns="http://www.w3.org/2000/svg" width="302.836" height="39.97" viewBox="0 0 302.836 39.97">
  <g id="logo" transform="translate(0 0)">
    <path id="Path_1" data-name="Path 1" d="M39.568,20.431a19.711,19.711,0,0,1-19.75,19.818A19.691,19.691,0,0,1,8.2,36.487v3.762H0V20.431A19.811,19.811,0,0,1,19.818.681,20,20,0,0,1,31.44,4.443,19.747,19.747,0,0,1,39.568,20.431Zm-8.128,0A11.622,11.622,0,1,0,19.818,32.053,11.669,11.669,0,0,0,31.44,20.431Z" transform="translate(0 -0.28)" fill="#fff"/>
    <path id="Path_2" data-name="Path 2" d="M102.539,40.811V33.489a11.42,11.42,0,0,0-22.841,0v7.323H71.7V2.049H79.7v15.72a19.5,19.5,0,0,1,22.841,0,19.493,19.493,0,0,1,7.994,15.719v7.323h-7.994Z" transform="translate(-29.449 -0.842)" fill="#fff"/>
    <path id="Path_3" data-name="Path 3" d="M181.721,20.431A19.784,19.784,0,1,1,161.971.68,19.8,19.8,0,0,1,181.721,20.431Zm-8.128,0a11.622,11.622,0,1,0-11.622,11.622A11.669,11.669,0,0,0,173.593,20.431Z" transform="translate(-58.383 -0.279)" fill="#fff"/>
    <path id="Path_4" data-name="Path 4" d="M245.3,36.534a19.914,19.914,0,0,1-7.591,3.359,19.528,19.528,0,0,1-4.031.4A19.89,19.89,0,0,1,214.26,24.643a14.232,14.232,0,0,1-.336-2.956L213.857.794h8.2V16.447h15.653v8.2H222.792a11.369,11.369,0,0,0,6.785,6.718,11.682,11.682,0,0,0,4.1.739,11.649,11.649,0,0,0,10.816-7.457h8.532A19.706,19.706,0,0,1,245.3,36.534Z" transform="translate(-87.832 -0.326)" fill="#fff"/>
    <path id="Path_5" data-name="Path 5" d="M388.019,40.249V20.431a11.622,11.622,0,1,0-23.244,0V40.249h-8.2V20.431a19.626,19.626,0,0,1,8.2-15.988A19.244,19.244,0,0,1,376.4.681a19.536,19.536,0,0,1,11.623,3.762,19.746,19.746,0,0,1,8.128,15.988V40.249Z" transform="translate(-146.448 -0.28)" fill="#fff"/>
    <path id="Path_6" data-name="Path 6" d="M428.4,40.3V.8h8.195V40.3Z" transform="translate(-175.944 -0.327)" fill="#fff"/>
    <path id="Path_7" data-name="Path 7" d="M486.318,20.384V40.2h-8.195V36.373a19.45,19.45,0,0,1-23.177,0,19.626,19.626,0,0,1-8.2-15.989,19.848,19.848,0,0,1,8.2-16.056,19.729,19.729,0,0,1,23.177,0A19.847,19.847,0,0,1,486.318,20.384Zm-8.2,0A11.589,11.589,0,1,0,466.5,32.006,11.584,11.584,0,0,0,478.122,20.384Z" transform="translate(-183.482 -0.233)" fill="#fff"/>
    <g id="Group_10" data-name="Group 10" transform="translate(167.847 0)">
      <g id="Group_9" data-name="Group 9">
        <path id="Path_8" data-name="Path 8" d="M286.921,18.53a19.8,19.8,0,0,0,.6,18.809L301.368,21.08Z" transform="translate(-284.827 -7.61)" fill="#fff"/>
        <path id="Path_9" data-name="Path 9" d="M305.331.043a19.812,19.812,0,0,0-16.218,10.078l21.15,3.733Z" transform="translate(-286.587 -0.017)" fill="#fff"/>
        <path id="Path_10" data-name="Path 10" d="M338.327,35.489a19.8,19.8,0,0,0-.592-18.8L323.88,32.939Z" transform="translate(-300.866 -6.854)" fill="#fff"/>
        <path id="Path_11" data-name="Path 11" d="M334.919,9.047A19.716,19.716,0,0,0,321.748.3,19.922,19.922,0,0,0,318.2,0l7.213,20.195Z" transform="translate(-298.534 0)" fill="#fff"/>
        <path id="Path_12" data-name="Path 12" d="M290.213,44.007a19.8,19.8,0,0,0,16.94,9.035l-7.434-20.194Z" transform="translate(-287.039 -13.491)" fill="#fff"/>
        <path id="Path_13" data-name="Path 13" d="M316.99,57.449a19.814,19.814,0,0,0,15.992-10.063l-21.064-3.718Z" transform="translate(-295.953 -17.934)" fill="#fff"/>
      </g>
    </g>
  </g>
</svg>
