<svg xmlns="http://www.w3.org/2000/svg" width="40" height="35" viewBox="0 0 40 35">
  <path id="right-from-bracket-solid" d="M7.5,67h5a2.5,2.5,0,0,0,0-5h-5A2.5,2.5,0,0,1,5,59.5v-20A2.5,2.5,0,0,1,7.5,37h5a2.5,2.5,0,0,0,0-5h-5A7.5,7.5,0,0,0,0,39.5v20A7.5,7.5,0,0,0,7.5,67ZM39.438,48.133,28.18,37.508a1.876,1.876,0,0,0-3.165,1.364L25.008,44.5h-10a2.5,2.5,0,0,0-2.5,2.5v5a2.5,2.5,0,0,0,2.5,2.5h10l.007,5.555a1.876,1.876,0,0,0,3.165,1.364L39.438,50.79A1.85,1.85,0,0,0,39.438,48.133Z" transform="translate(0 -32)" fill="#fff"/>
</svg>
