<svg xmlns="http://www.w3.org/2000/svg" width="40" height="35" viewBox="0 0 40 35">
  <path id="thumbs-down-solid" d="M7.5,32h-5A2.486,2.486,0,0,0,0,34.433v17.43a2.441,2.441,0,0,0,2.5,2.43h5a2.486,2.486,0,0,0,2.5-2.43V34.5A2.5,2.5,0,0,0,7.5,32ZM36.508,48.266a3.73,3.73,0,0,0-2.066-6.2,3.771,3.771,0,0,0-2.04-5.558,2.816,2.816,0,0,0,.1-.757A3.749,3.749,0,0,0,28.75,32H24.165a12.5,12.5,0,0,0-7.5,2.5L14,36.5a3.72,3.72,0,0,0-1.5,2.932l.008,12.5h0a3.747,3.747,0,0,0,1.4,2.919l1.273,1.018C21.578,61.055,18.7,67,23.633,67A3.776,3.776,0,0,0,27.5,63.241a19.075,19.075,0,0,0-2.7-7.5H36.25a3.741,3.741,0,0,0,.258-7.474Z" transform="translate(0 -32)" fill="#fff"/>
</svg>
